<?xml version="1.0" encoding="UTF-8" standalone="no"?>
<!-- Created with Inkscape (http://www.inkscape.org/) -->

<svg
   width="48"
   height="48"
   viewBox="0 0 48 48"
   version="1.1"
   id="svg1"
   xml:space="preserve"
   xmlns:xlink="http://www.w3.org/1999/xlink"
   xmlns="http://www.w3.org/2000/svg"
   xmlns:svg="http://www.w3.org/2000/svg"><defs
     id="defs1"><linearGradient
       id="linearGradient159"><stop
         style="stop-color:#e42323;stop-opacity:1;"
         offset="0.20803955"
         id="stop159" /><stop
         style="stop-color:#e38b00;stop-opacity:1;"
         offset="0.34811184"
         id="stop163" /><stop
         style="stop-color:#cbd218;stop-opacity:1;"
         offset="0.4538756"
         id="stop164" /><stop
         style="stop-color:#56c321;stop-opacity:1;"
         offset="0.5499447"
         id="stop161" /><stop
         style="stop-color:#34a9df;stop-opacity:1;"
         offset="0.72208863"
         id="stop162" /><stop
         style="stop-color:#9c00ff;stop-opacity:1;"
         offset="0.87306553"
         id="stop160" /></linearGradient><linearGradient
       xlink:href="#linearGradient159"
       id="linearGradient160"
       x1="6.8715081"
       y1="4.24581"
       x2="44.245811"
       y2="46.03352"
       gradientUnits="userSpaceOnUse" /><linearGradient
       xlink:href="#linearGradient159"
       id="linearGradient24"
       gradientUnits="userSpaceOnUse"
       x1="6.8715081"
       y1="4.24581"
       x2="44.245811"
       y2="46.03352" /><linearGradient
       xlink:href="#linearGradient159"
       id="linearGradient25"
       gradientUnits="userSpaceOnUse"
       x1="6.8715081"
       y1="4.24581"
       x2="44.245811"
       y2="46.03352" /><linearGradient
       xlink:href="#linearGradient159"
       id="linearGradient26"
       gradientUnits="userSpaceOnUse"
       x1="6.8715081"
       y1="4.24581"
       x2="44.245811"
       y2="46.03352" /><linearGradient
       xlink:href="#linearGradient159"
       id="linearGradient27"
       gradientUnits="userSpaceOnUse"
       x1="6.8715081"
       y1="4.24581"
       x2="44.245811"
       y2="46.03352" /><linearGradient
       xlink:href="#linearGradient159"
       id="linearGradient28"
       gradientUnits="userSpaceOnUse"
       x1="6.8715081"
       y1="4.24581"
       x2="44.245811"
       y2="46.03352" /><linearGradient
       xlink:href="#linearGradient159"
       id="linearGradient29"
       gradientUnits="userSpaceOnUse"
       x1="6.8715081"
       y1="4.24581"
       x2="44.245811"
       y2="46.03352" /><linearGradient
       xlink:href="#linearGradient159"
       id="linearGradient30"
       gradientUnits="userSpaceOnUse"
       x1="6.8715081"
       y1="4.24581"
       x2="44.245811"
       y2="46.03352" /><linearGradient
       xlink:href="#linearGradient159"
       id="linearGradient31"
       gradientUnits="userSpaceOnUse"
       x1="6.8715081"
       y1="4.24581"
       x2="44.245811"
       y2="46.03352" /><linearGradient
       xlink:href="#linearGradient159"
       id="linearGradient32"
       gradientUnits="userSpaceOnUse"
       x1="6.8715081"
       y1="4.24581"
       x2="44.245811"
       y2="46.03352" /><linearGradient
       xlink:href="#linearGradient159"
       id="linearGradient33"
       gradientUnits="userSpaceOnUse"
       x1="6.8715081"
       y1="4.24581"
       x2="44.245811"
       y2="46.03352" /><linearGradient
       xlink:href="#linearGradient159"
       id="linearGradient34"
       gradientUnits="userSpaceOnUse"
       x1="6.8715081"
       y1="4.24581"
       x2="44.245811"
       y2="46.03352" /><linearGradient
       xlink:href="#linearGradient159"
       id="linearGradient35"
       gradientUnits="userSpaceOnUse"
       x1="6.8715081"
       y1="4.24581"
       x2="44.245811"
       y2="46.03352" /><linearGradient
       xlink:href="#linearGradient159"
       id="linearGradient36"
       gradientUnits="userSpaceOnUse"
       x1="6.8715081"
       y1="4.24581"
       x2="44.245811"
       y2="46.03352" /><linearGradient
       xlink:href="#linearGradient159"
       id="linearGradient37"
       gradientUnits="userSpaceOnUse"
       x1="6.8715081"
       y1="4.24581"
       x2="44.245811"
       y2="46.03352" /><linearGradient
       xlink:href="#linearGradient159"
       id="linearGradient38"
       gradientUnits="userSpaceOnUse"
       x1="6.8715081"
       y1="4.24581"
       x2="44.245811"
       y2="46.03352" /><linearGradient
       xlink:href="#linearGradient159"
       id="linearGradient39"
       gradientUnits="userSpaceOnUse"
       x1="6.8715081"
       y1="4.24581"
       x2="44.245811"
       y2="46.03352" /><linearGradient
       xlink:href="#linearGradient159"
       id="linearGradient40"
       gradientUnits="userSpaceOnUse"
       x1="6.8715081"
       y1="4.24581"
       x2="44.245811"
       y2="46.03352" /><linearGradient
       xlink:href="#linearGradient159"
       id="linearGradient41"
       gradientUnits="userSpaceOnUse"
       x1="6.8715081"
       y1="4.24581"
       x2="44.245811"
       y2="46.03352" /><linearGradient
       xlink:href="#linearGradient159"
       id="linearGradient42"
       gradientUnits="userSpaceOnUse"
       x1="6.8715081"
       y1="4.24581"
       x2="44.245811"
       y2="46.03352" /><linearGradient
       xlink:href="#linearGradient159"
       id="linearGradient43"
       gradientUnits="userSpaceOnUse"
       x1="6.8715081"
       y1="4.24581"
       x2="44.245811"
       y2="46.03352" /><linearGradient
       xlink:href="#linearGradient159"
       id="linearGradient44"
       gradientUnits="userSpaceOnUse"
       x1="6.8715081"
       y1="4.24581"
       x2="44.245811"
       y2="46.03352" /></defs><g
     id="layer1"><rect
       style="fill:#000000;fill-opacity:1;stroke-width:1.23368"
       id="rect1"
       width="47.375923"
       height="47.261627"
       x="0.31203842"
       y="0.3691864"
       ry="1.2572621" /><g
       id="g159"
       style="fill:url(#linearGradient160);fill-opacity:1;stroke:#ffffff;stroke-opacity:0.0508272"
       transform="matrix(1.2098623,0,0,1.1248186,-4.481244,-2.754297)"><path
         style="fill:url(#linearGradient24);fill-opacity:1;stroke:#ffffff;stroke-width:1.20582;stroke-opacity:0.0508272"
         d="M 8.4345104,35.749344 16.112139,38.033407 16.479448,36.249036 9.3209313,34.12722 8.8537684,35.12974 Z"
         id="path26" /><path
         style="fill:url(#linearGradient25);fill-opacity:1;stroke:#ffffff;stroke-width:1.20582;stroke-opacity:0.0508272"
         d="m 23.252346,40.413437 -7.32351,-2.448796 0.559027,-1.615907 7.550509,2.69327 0.474587,1.3775 z"
         id="path27" /><path
         style="fill:url(#linearGradient26);fill-opacity:1;stroke:#ffffff;stroke-width:1.20582;stroke-opacity:0.0508272"
         d="m 31.815344,43.836796 -8.510618,-3.495867 0.502807,-1.434553 7.995354,3.451378 0.03258,1.550066 z"
         id="path28" /><path
         style="fill:url(#linearGradient27);fill-opacity:1;stroke:#ffffff;stroke-width:1.20582;stroke-opacity:0.0508272"
         d="m 41.705934,43.165364 -10.135603,0.67497 0.108535,-1.551905 7.862196,-1.480599 2.142596,2.359016 z"
         id="path29" /><path
         style="fill:url(#linearGradient28);fill-opacity:1;stroke:#ffffff;stroke-width:1.20582;stroke-opacity:0.0508272"
         d="M 19.928482,27.197193 39.629993,42.976215 41.684224,42.574074 21.190238,25.839552 19.886383,27.613781 Z"
         id="path30" /><path
         style="fill:url(#linearGradient29);fill-opacity:1;stroke:#ffffff;stroke-width:1.20582;stroke-opacity:0.0508272"
         d="m 37.165699,19.186001 4.859539,23.73435 -2.004824,-0.496064 -4.858788,-21.710789 1.592121,-0.10927 z"
         id="path31" /><path
         style="fill:url(#linearGradient30);fill-opacity:1;stroke:#ffffff;stroke-width:1.20582;stroke-opacity:0.0508272"
         d="m 24.08534,21.187577 -4.709207,4.243279 1.417263,1.727897 4.622118,-4.284952 -0.554329,-0.597943 z"
         id="path32" /><path
         style="fill:url(#linearGradient31);fill-opacity:1;stroke:#ffffff;stroke-width:1.20582;stroke-opacity:0.0508272"
         d="m 29.339797,19.19272 -5.228113,1.865142 0.861738,1.931845 5.014581,-1.76404 -0.674143,-1.407223 z"
         id="path33" /><path
         style="fill:url(#linearGradient32);fill-opacity:1;stroke:#ffffff;stroke-width:1.20582;stroke-opacity:0.0508272"
         d="m 36.684089,18.923902 -7.130663,0.285666 0.05235,2.115879 6.885854,-0.123893 0.02269,-1.873746 z"
         id="path34" /><path
         style="fill:url(#linearGradient33);fill-opacity:1;stroke:#ffffff;stroke-width:1.20582;stroke-opacity:0.0508272"
         d="m 5.0625347,15.37719 4.7415404,3.666964 1.1798779,-1.588291 -4.5106551,-3.801237 -1.480027,1.668999 z"
         id="path35" /><path
         style="fill:url(#linearGradient34);fill-opacity:1;stroke:#ffffff;stroke-width:1.20582;stroke-opacity:0.0508272"
         d="m 14.869348,22.868556 -5.1291349,-3.7754 1.1133159,-1.714359 5.244186,3.874963 -1.038279,1.754714 z"
         id="path36" /><path
         style="fill:url(#linearGradient35);fill-opacity:1;stroke:#ffffff;stroke-width:1.20582;stroke-opacity:0.0508272"
         d="m 19.767232,27.471034 -4.946889,-4.666338 1.126635,-1.536864 5.201125,4.914278 0.299082,1.940417 z"
         id="path37" /><path
         style="fill:url(#linearGradient36);fill-opacity:1;stroke:#ffffff;stroke-width:1.20582;stroke-opacity:0.0508272"
         d="M 10.609492,5.3734698 15.174389,11.188142 16.49369,10.049424 12.2023,4.8407607 10.620368,5.4145018 Z"
         id="path38" /><path
         style="fill:url(#linearGradient37);fill-opacity:1;stroke:#ffffff;stroke-width:1.20582;stroke-opacity:0.0508272"
         d="m 20.147393,17.339208 -5.235938,-6.24664 1.543881,-1.1430994 5.028585,6.0239774 -0.643463,1.385187 z"
         id="path39" /><path
         style="fill:url(#linearGradient38);fill-opacity:1;stroke:#ffffff;stroke-width:1.20582;stroke-opacity:0.0508272"
         d="m 24.739071,22.904911 -4.704235,-5.646414 1.212573,-1.490264 3.927823,4.903163 -0.387159,2.297377 z"
         id="path40" /><path
         style="fill:url(#linearGradient39);fill-opacity:1;stroke:#ffffff;stroke-width:1.20582;stroke-opacity:0.0508272"
         d="M 19.750007,4.1979742 23.223786,10.486721 24.968915,8.7116007 21.483076,3.6156535 20.600882,3.7765498 Z"
         id="path41" /><path
         style="fill:url(#linearGradient40);fill-opacity:1;stroke:#ffffff;stroke-width:1.20582;stroke-opacity:0.0508272"
         d="M 26.012892,16.071888 22.90097,9.9703029 24.913772,8.7512187 27.800277,14.453837 27.32575,16.520386 Z"
         id="path42" /><path
         style="fill:url(#linearGradient41);fill-opacity:1;stroke:#ffffff;stroke-width:1.20582;stroke-opacity:0.0508272"
         d="m 28.192008,21.364601 -2.805759,-6.656153 2.012362,-1.120549 2.820343,7.162678 -1.524616,0.838061 z"
         id="path43" /><path
         style="fill:url(#linearGradient42);fill-opacity:1;stroke:#ffffff;stroke-width:1.20582;stroke-opacity:0.0508272"
         d="m 35.308061,5.9014885 0.791519,6.2563105 1.885426,-0.79827 -0.981254,-5.8282796 -1.660316,0.3946794 z"
         id="path44" /><path
         style="fill:url(#linearGradient43);fill-opacity:1;stroke:#ffffff;stroke-width:1.20582;stroke-opacity:0.0508272"
         d="m 35.805255,15.451701 0.332157,-4.48971 1.824145,0.313883 -0.03898,4.476917 -2.161814,-0.313873 z"
         id="path45" /><path
         style="fill:url(#linearGradient44);fill-opacity:1;stroke:#ffffff;stroke-width:1.20582;stroke-opacity:0.0508272"
         d="m 35.449472,20.613508 0.393916,-5.818132 2.123654,0.349929 -0.550534,5.742648 -1.748467,-0.148151 z"
         id="path46" /></g></g></svg>
